<?xml version="1.0" encoding="utf-8"?>
<!-- Generator: Adobe Illustrator 16.0.0, SVG Export Plug-In . SVG Version: 6.00 Build 0)  -->
<!DOCTYPE svg PUBLIC "-//W3C//DTD SVG 1.1//EN" "http://www.w3.org/Graphics/SVG/1.1/DTD/svg11.dtd">
<svg version="1.1" id="Layer_1" xmlns="http://www.w3.org/2000/svg" xmlns:xlink="http://www.w3.org/1999/xlink" x="0px" y="0px"
	 width="185px" height="188px" viewBox="0 0 185 188" enable-background="new 0 0 185 188" xml:space="preserve">
<g>
	<g>
		<path fill="#4E4E4E" d="M115.912,17.967c0,2.676-0.73,4.738-2.193,6.186c-1.462,1.448-3.518,2.171-6.166,2.171h-5.148V10.29h5.508
			c2.554,0,4.525,0.658,5.916,1.974C115.217,13.58,115.912,15.481,115.912,17.967z M111.45,18.121c0-1.469-0.289-2.559-0.866-3.268
			s-1.453-1.064-2.628-1.064h-1.251v8.982h0.958c1.306,0,2.264-0.382,2.874-1.146C111.146,20.861,111.45,19.693,111.45,18.121z"/>
		<path fill="#4E4E4E" d="M123.129,26.544c-2.053,0-3.646-0.55-4.783-1.65c-1.136-1.101-1.703-2.667-1.703-4.7
			c0-2.099,0.525-3.709,1.578-4.832c1.053-1.122,2.555-1.684,4.506-1.684c1.856,0,3.293,0.488,4.305,1.464s1.52,2.382,1.52,4.217
			v1.908h-7.609c0.029,0.695,0.281,1.239,0.759,1.634c0.475,0.395,1.12,0.592,1.94,0.592c0.748,0,1.437-0.071,2.063-0.214
			c0.629-0.143,1.31-0.386,2.041-0.729v3.082c-0.668,0.344-1.356,0.581-2.068,0.713C124.965,26.478,124.117,26.544,123.129,26.544z
			 M122.879,16.596c-0.5,0-0.92,0.159-1.256,0.477c-0.338,0.318-0.537,0.817-0.594,1.497h3.656
			c-0.015-0.599-0.185-1.078-0.506-1.437C123.857,16.774,123.424,16.596,122.879,16.596z"/>
		<path fill="#4E4E4E" d="M132.852,26.325l-4.703-12.426h4.44l2.091,7.348c0.008,0.037,0.021,0.099,0.043,0.187
			c0.022,0.088,0.043,0.192,0.065,0.313c0.021,0.121,0.041,0.249,0.06,0.384c0.019,0.136,0.027,0.262,0.027,0.378h0.076
			c0-0.38,0.064-0.793,0.195-1.239l2.188-7.37h4.43l-4.701,12.426L132.852,26.325L132.852,26.325L132.852,26.325z"/>
		<path fill="#4E4E4E" d="M146.381,26.325h-4.234V10.29h9.404v3.477h-5.17v3.06h4.768v3.477h-4.768V26.325L146.381,26.325z"/>
		<path fill="#4E4E4E" d="M158.527,26.544c-2.053,0-3.646-0.55-4.782-1.65s-1.703-2.667-1.703-4.7c0-2.099,0.524-3.709,1.578-4.832
			c1.052-1.122,2.554-1.684,4.506-1.684c1.856,0,3.292,0.488,4.306,1.464c1.012,0.976,1.519,2.382,1.519,4.217v1.908h-7.608
			c0.029,0.695,0.281,1.239,0.758,1.634c0.475,0.395,1.121,0.592,1.941,0.592c0.747,0,1.436-0.071,2.063-0.214
			c0.629-0.143,1.309-0.386,2.041-0.729v3.082c-0.668,0.344-1.356,0.581-2.067,0.713C160.363,26.478,159.516,26.544,158.527,26.544z
			 M158.277,16.596c-0.5,0-0.92,0.159-1.256,0.477c-0.338,0.318-0.537,0.817-0.595,1.497h3.657
			c-0.016-0.599-0.184-1.078-0.506-1.437C159.256,16.775,158.822,16.596,158.277,16.596z"/>
		<path fill="#4E4E4E" d="M174.541,22.508c0,1.331-0.45,2.336-1.35,3.016c-0.9,0.68-2.191,1.02-3.875,1.02
			c-0.914,0-1.709-0.049-2.385-0.148c-0.675-0.099-1.363-0.28-2.066-0.543V22.42c0.66,0.292,1.384,0.534,2.171,0.724
			s1.489,0.285,2.106,0.285c0.92,0,1.381-0.212,1.381-0.636c0-0.219-0.129-0.415-0.385-0.586c-0.259-0.172-1.008-0.506-2.248-1.004
			c-1.133-0.468-1.924-1-2.373-1.596s-0.676-1.351-0.676-2.265c0-1.155,0.442-2.055,1.328-2.698
			c0.885-0.644,2.137-0.965,3.755-0.965c0.813,0,1.576,0.09,2.291,0.269c0.716,0.179,1.457,0.44,2.228,0.784l-1.154,2.764
			c-0.564-0.256-1.164-0.473-1.796-0.652c-0.632-0.179-1.146-0.269-1.546-0.269c-0.696,0-1.045,0.172-1.045,0.516
			c0,0.212,0.121,0.393,0.365,0.543c0.242,0.15,0.944,0.455,2.105,0.916c0.863,0.358,1.507,0.709,1.932,1.053
			c0.426,0.344,0.736,0.748,0.937,1.212C174.441,21.278,174.541,21.843,174.541,22.508z"/>
		<path fill="#4E4E4E" d="M181.605,23.155c0.572,0,1.258-0.143,2.058-0.428v3.126c-0.573,0.249-1.119,0.426-1.64,0.532
			c-0.519,0.105-1.125,0.159-1.821,0.159c-1.431,0-2.46-0.353-3.093-1.058c-0.631-0.706-0.945-1.79-0.945-3.252v-5.122h-1.491
			v-1.744l1.894-1.349l1.101-2.61h2.786v2.49h3.025v3.213h-3.025v4.837C180.452,22.753,180.837,23.155,181.605,23.155z"/>
	</g>
	<g>
		<path fill="#4E4E4E" d="M55.571,17.313h6.922v8.644c-1.879,0.644-3.945,0.965-6.198,0.965c-2.472,0-4.382-0.716-5.731-2.15
			c-1.349-1.433-2.024-3.477-2.024-6.132c0-2.589,0.739-4.603,2.216-6.044c1.477-1.44,3.547-2.161,6.208-2.161
			c1.009,0,1.962,0.095,2.858,0.285c0.896,0.19,1.676,0.432,2.342,0.724l-1.371,3.4c-1.156-0.57-2.424-0.854-3.807-0.854
			c-1.265,0-2.243,0.412-2.934,1.234c-0.691,0.823-1.037,1.999-1.037,3.527c0,1.499,0.313,2.642,0.938,3.428
			c0.625,0.786,1.526,1.179,2.704,1.179c0.644,0,1.236-0.062,1.777-0.187v-2.512h-2.863V17.313z"/>
		<path fill="#4E4E4E" d="M78.026,18.344c0,2.676-0.737,4.739-2.21,6.188c-1.473,1.448-3.545,2.172-6.214,2.172h-5.188V10.666h5.551
			c2.574,0,4.561,0.658,5.961,1.975C77.326,13.958,78.026,15.858,78.026,18.344z M73.529,18.498c0-1.47-0.291-2.56-0.872-3.269
			c-0.582-0.709-1.464-1.064-2.649-1.064h-1.262v8.983h0.965c1.316,0,2.282-0.382,2.896-1.146
			C73.221,21.238,73.529,20.07,73.529,18.498z"/>
		<path fill="#4E4E4E" d="M85.991,17.313h6.922v8.644c-1.879,0.644-3.945,0.965-6.198,0.965c-2.472,0-4.382-0.716-5.731-2.15
			c-1.349-1.433-2.024-3.477-2.024-6.132c0-2.589,0.739-4.603,2.216-6.044c1.477-1.44,3.547-2.161,6.208-2.161
			c1.009,0,1.962,0.095,2.858,0.285c0.896,0.19,1.676,0.432,2.342,0.724l-1.371,3.4c-1.156-0.57-2.424-0.854-3.807-0.854
			c-1.265,0-2.243,0.412-2.934,1.234c-0.691,0.823-1.037,1.999-1.037,3.527c0,1.499,0.313,2.642,0.938,3.428
			c0.625,0.786,1.526,1.179,2.704,1.179c0.644,0,1.236-0.062,1.777-0.187v-2.512h-2.863V17.313z"/>
	</g>
	
		<radialGradient id="SVGID_1_" cx="102.3594" cy="1254.666" r="20.1129" gradientTransform="matrix(0.498 0 0 0.498 -33.3509 -574.9915)" gradientUnits="userSpaceOnUse">
		<stop  offset="0" style="stop-color:#FFCF4F"/>
		<stop  offset="1" style="stop-color:#F4C236"/>
	</radialGradient>
	<path fill="url(#SVGID_1_)" d="M8.91,61h6.791c1.607,0,3.604-1.128,4.432-2.511l5.72-9.52c0.677-1.396,0.653-3.426-0.119-4.713
		l-3.378-5.592L8.91,61z"/>
	
		<radialGradient id="SVGID_2_" cx="90.3066" cy="1244.4531" r="27.6567" gradientTransform="matrix(0.498 0 0 0.498 -33.3509 -574.9915)" gradientUnits="userSpaceOnUse">
		<stop  offset="0" style="stop-color:#08A960"/>
		<stop  offset="1" style="stop-color:#07914B"/>
	</radialGradient>
	<path fill="url(#SVGID_2_)" d="M16.209,33.514L1.108,58.763C0.524,60.011,1.131,61,2.629,61H8.91l13.446-22.335L16.21,28.492
		C17.039,29.87,17.039,32.13,16.209,33.514"/>
	
		<radialGradient id="SVGID_3_" cx="99.7578" cy="1204.7695" r="40.5383" gradientTransform="matrix(0.498 0 0 0.498 -33.3509 -574.9915)" gradientUnits="userSpaceOnUse">
		<stop  offset="0" style="stop-color:#567FC0"/>
		<stop  offset="1" style="stop-color:#557FC0"/>
	</radialGradient>
	<path fill="url(#SVGID_3_)" d="M2.629,1C1.015,1,0.375,2.133,1.205,3.511l24.529,40.745c0.772,1.288,0.795,3.317,0.119,4.713
		l5.963-9.925L8.914,1H2.629z"/>
	
		<radialGradient id="SVGID_4_" cx="111.8232" cy="1194.8066" r="33.0572" gradientTransform="matrix(0.498 0 0 0.498 -33.3509 -574.9915)" gradientUnits="userSpaceOnUse">
		<stop  offset="0" style="stop-color:#E14C40"/>
		<stop  offset="1" style="stop-color:#CD392D"/>
	</radialGradient>
	<path fill="url(#SVGID_4_)" d="M8.914,1l22.903,38.045l3.321-5.53c0.83-1.385,0.83-3.645,0-5.023L20.133,3.511
		C19.305,2.133,17.308,1,15.701,1H8.914z"/>
</g>
<g>
	<g>
		<path fill="#4E4E4E" d="M115.912,80.967c0,2.677-0.73,4.738-2.193,6.187c-1.462,1.447-3.518,2.171-6.166,2.171h-5.148V73.29h5.508
			c2.554,0,4.525,0.657,5.916,1.974C115.218,76.581,115.912,78.481,115.912,80.967z M111.45,81.12c0-1.469-0.289-2.559-0.866-3.268
			c-0.577-0.71-1.453-1.064-2.628-1.064h-1.251v8.982h0.958c1.306,0,2.264-0.382,2.874-1.146
			C111.145,83.86,111.45,82.692,111.45,81.12z"/>
		<path fill="#4E4E4E" d="M123.129,89.544c-2.053,0-3.646-0.55-4.783-1.65c-1.136-1.101-1.703-2.667-1.703-4.7
			c0-2.099,0.525-3.709,1.578-4.831c1.053-1.122,2.555-1.684,4.506-1.684c1.856,0,3.293,0.488,4.305,1.464
			c1.012,0.977,1.52,2.382,1.52,4.218v1.908h-7.609c0.029,0.694,0.281,1.239,0.759,1.634c0.475,0.396,1.12,0.593,1.94,0.593
			c0.748,0,1.437-0.071,2.063-0.214c0.629-0.143,1.31-0.386,2.041-0.729v3.082c-0.668,0.344-1.356,0.581-2.068,0.713
			C124.965,89.478,124.117,89.544,123.129,89.544z M122.879,79.596c-0.5,0-0.92,0.159-1.256,0.478
			c-0.338,0.318-0.537,0.817-0.594,1.497h3.656c-0.015-0.6-0.185-1.078-0.506-1.437C123.857,79.775,123.424,79.596,122.879,79.596z"
			/>
		<path fill="#4E4E4E" d="M132.852,89.324l-4.703-12.426h4.44l2.091,7.348c0.008,0.037,0.021,0.099,0.043,0.187
			c0.022,0.088,0.043,0.192,0.065,0.313c0.021,0.121,0.041,0.249,0.06,0.384c0.019,0.136,0.027,0.262,0.027,0.379h0.076
			c0-0.38,0.064-0.793,0.195-1.239l2.188-7.37h4.43l-4.701,12.426h-4.211V89.324L132.852,89.324z"/>
		<path fill="#4E4E4E" d="M146.381,89.324h-4.234V73.29h9.404v3.477h-5.17v3.06h4.768v3.477h-4.768V89.324L146.381,89.324z"/>
		<path fill="#4E4E4E" d="M158.527,89.544c-2.053,0-3.646-0.55-4.782-1.65s-1.703-2.667-1.703-4.7c0-2.099,0.524-3.709,1.578-4.831
			c1.052-1.122,2.554-1.684,4.506-1.684c1.856,0,3.292,0.488,4.306,1.464c1.012,0.977,1.519,2.382,1.519,4.218v1.908h-7.608
			c0.029,0.694,0.281,1.239,0.758,1.634c0.475,0.396,1.121,0.593,1.941,0.593c0.747,0,1.436-0.071,2.063-0.214
			c0.629-0.143,1.309-0.386,2.041-0.729v3.082c-0.668,0.344-1.356,0.581-2.067,0.713C160.363,89.478,159.516,89.544,158.527,89.544z
			 M158.277,79.596c-0.5,0-0.92,0.159-1.256,0.478c-0.338,0.318-0.537,0.817-0.595,1.497h3.657c-0.016-0.6-0.184-1.078-0.506-1.437
			C159.256,79.775,158.822,79.596,158.277,79.596z"/>
		<path fill="#4E4E4E" d="M174.541,85.508c0,1.331-0.45,2.336-1.35,3.016c-0.9,0.681-2.191,1.021-3.875,1.021
			c-0.914,0-1.709-0.05-2.385-0.148c-0.675-0.098-1.363-0.279-2.066-0.543V85.42c0.66,0.293,1.384,0.534,2.171,0.724
			s1.489,0.285,2.106,0.285c0.92,0,1.381-0.212,1.381-0.636c0-0.22-0.129-0.415-0.385-0.587c-0.259-0.172-1.008-0.506-2.248-1.004
			c-1.133-0.468-1.924-0.999-2.373-1.596c-0.449-0.596-0.676-1.351-0.676-2.265c0-1.155,0.442-2.055,1.328-2.698
			c0.885-0.644,2.137-0.965,3.755-0.965c0.813,0,1.576,0.09,2.291,0.27c0.716,0.18,1.457,0.44,2.228,0.784l-1.154,2.764
			c-0.564-0.256-1.164-0.473-1.796-0.652c-0.632-0.179-1.146-0.269-1.546-0.269c-0.696,0-1.045,0.172-1.045,0.516
			c0,0.212,0.121,0.393,0.365,0.543c0.242,0.149,0.944,0.455,2.105,0.915c0.863,0.358,1.507,0.71,1.932,1.054
			c0.426,0.344,0.736,0.747,0.937,1.212C174.441,84.277,174.541,84.843,174.541,85.508z"/>
		<path fill="#4E4E4E" d="M181.605,86.154c0.572,0,1.258-0.143,2.058-0.428v3.126c-0.573,0.249-1.119,0.427-1.64,0.532
			c-0.519,0.105-1.125,0.159-1.821,0.159c-1.431,0-2.46-0.353-3.093-1.059c-0.631-0.705-0.945-1.789-0.945-3.252V80.11h-1.491
			v-1.743l1.894-1.35l1.101-2.61h2.786v2.49h3.025v3.213h-3.025v4.837C180.452,85.753,180.837,86.154,181.605,86.154z"/>
	</g>
	<g>
		<path fill="#4E4E4E" d="M55.571,80.313h6.922v8.644c-1.879,0.644-3.945,0.966-6.198,0.966c-2.472,0-4.382-0.717-5.731-2.15
			s-2.024-3.477-2.024-6.132c0-2.589,0.739-4.603,2.216-6.044c1.477-1.44,3.547-2.161,6.208-2.161c1.009,0,1.962,0.096,2.858,0.285
			c0.896,0.19,1.676,0.432,2.342,0.725l-1.371,3.4c-1.156-0.57-2.424-0.855-3.807-0.855c-1.265,0-2.243,0.411-2.934,1.233
			c-0.691,0.823-1.037,1.999-1.037,3.527c0,1.499,0.313,2.642,0.938,3.428c0.625,0.786,1.526,1.179,2.704,1.179
			c0.644,0,1.236-0.062,1.777-0.187v-2.512h-2.863V80.313z"/>
		<path fill="#4E4E4E" d="M78.026,81.344c0,2.677-0.737,4.739-2.21,6.188c-1.474,1.448-3.545,2.172-6.214,2.172h-5.188V73.665h5.551
			c2.574,0,4.561,0.658,5.961,1.975C77.326,76.957,78.026,78.857,78.026,81.344z M73.529,81.497c0-1.47-0.291-2.56-0.872-3.269
			c-0.581-0.709-1.464-1.063-2.649-1.063h-1.262v8.983h0.965c1.316,0,2.282-0.382,2.896-1.146
			C73.222,84.238,73.529,83.069,73.529,81.497z"/>
		<path fill="#4E4E4E" d="M85.991,80.313h6.922v8.644c-1.879,0.644-3.945,0.966-6.198,0.966c-2.472,0-4.382-0.717-5.731-2.15
			s-2.024-3.477-2.024-6.132c0-2.589,0.739-4.603,2.216-6.044c1.477-1.44,3.547-2.161,6.208-2.161c1.009,0,1.962,0.096,2.858,0.285
			c0.896,0.19,1.676,0.432,2.342,0.725l-1.371,3.4c-1.156-0.57-2.424-0.855-3.807-0.855c-1.265,0-2.243,0.411-2.934,1.233
			c-0.691,0.823-1.037,1.999-1.037,3.527c0,1.499,0.313,2.642,0.938,3.428c0.625,0.786,1.526,1.179,2.704,1.179
			c0.644,0,1.236-0.062,1.777-0.187v-2.512h-2.863V80.313z"/>
	</g>
	
		<radialGradient id="SVGID_5_" cx="102.3594" cy="1381.1719" r="20.1129" gradientTransform="matrix(0.498 0 0 0.498 -33.3509 -574.9915)" gradientUnits="userSpaceOnUse">
		<stop  offset="0" style="stop-color:#CCCCCC"/>
		<stop  offset="1" style="stop-color:#C0C0C0"/>
	</radialGradient>
	<path fill="url(#SVGID_5_)" d="M8.91,124h6.791c1.607,0,3.604-1.128,4.432-2.511l5.72-9.52c0.677-1.396,0.653-3.426-0.119-4.713
		l-3.378-5.592L8.91,124z"/>
	
		<radialGradient id="SVGID_6_" cx="90.3066" cy="1370.959" r="27.6567" gradientTransform="matrix(0.498 0 0 0.498 -33.3509 -574.9915)" gradientUnits="userSpaceOnUse">
		<stop  offset="0" style="stop-color:#A0A0A0"/>
		<stop  offset="1" style="stop-color:#7B7B7B"/>
	</radialGradient>
	<path fill="url(#SVGID_6_)" d="M16.209,96.514l-15.101,25.25C0.524,123.011,1.131,124,2.629,124H8.91l13.446-22.335L16.21,91.492
		C17.039,92.87,17.039,95.13,16.209,96.514"/>
	
		<radialGradient id="SVGID_7_" cx="99.7578" cy="1331.2764" r="40.5378" gradientTransform="matrix(0.498 0 0 0.498 -33.3509 -574.9915)" gradientUnits="userSpaceOnUse">
		<stop  offset="0" style="stop-color:#848484"/>
		<stop  offset="1" style="stop-color:#838383"/>
	</radialGradient>
	<path fill="url(#SVGID_7_)" d="M2.629,64c-1.613,0-2.254,1.133-1.424,2.511l24.529,40.745c0.772,1.288,0.795,3.317,0.119,4.713
		l5.963-9.925L8.914,64H2.629z"/>
	
		<radialGradient id="SVGID_8_" cx="111.8232" cy="1321.3125" r="33.0577" gradientTransform="matrix(0.498 0 0 0.498 -33.3509 -574.9915)" gradientUnits="userSpaceOnUse">
		<stop  offset="0" style="stop-color:#626262"/>
		<stop  offset="1" style="stop-color:#474747"/>
	</radialGradient>
	<path fill="url(#SVGID_8_)" d="M8.914,64l22.903,38.045l3.321-5.529c0.83-1.386,0.83-3.646,0-5.023l-15.004-24.98
		C19.305,65.133,17.308,64,15.701,64H8.914z"/>
</g>
<g>
	<g>
		<path fill="#E6E6E5" d="M116.07,143.967c0,2.676-0.73,4.738-2.192,6.186c-1.462,1.449-3.519,2.173-6.166,2.173h-5.147V136.29
			h5.506c2.555,0,4.527,0.658,5.916,1.976C115.377,139.582,116.07,141.48,116.07,143.967z M111.607,144.12
			c0-1.47-0.289-2.56-0.865-3.269c-0.577-0.709-1.453-1.063-2.629-1.063h-1.25v8.981h0.957c1.307,0,2.265-0.381,2.875-1.146
			C111.303,146.859,111.607,145.691,111.607,144.12z"/>
		<path fill="#E6E6E5" d="M123.287,152.544c-2.053,0-3.646-0.551-4.782-1.651c-1.136-1.1-1.704-2.666-1.704-4.699
			c0-2.099,0.526-3.709,1.578-4.83c1.053-1.123,2.555-1.684,4.505-1.684c1.857,0,3.293,0.486,4.306,1.463
			c1.012,0.978,1.52,2.383,1.52,4.217v1.91H121.1c0.029,0.693,0.281,1.238,0.758,1.633c0.476,0.396,1.121,0.593,1.941,0.593
			c0.748,0,1.436-0.071,2.063-0.214c0.63-0.143,1.31-0.385,2.041-0.729v3.081c-0.668,0.344-1.356,0.582-2.067,0.713
			C125.123,152.479,124.275,152.544,123.287,152.544z M123.037,142.596c-0.5,0-0.92,0.159-1.256,0.479
			c-0.338,0.316-0.537,0.816-0.594,1.496h3.655c-0.014-0.6-0.184-1.078-0.506-1.438
			C124.016,142.775,123.582,142.596,123.037,142.596z"/>
		<path fill="#E6E6E5" d="M133.009,152.324l-4.702-12.428h4.44l2.09,7.35c0.009,0.037,0.022,0.099,0.044,0.188
			c0.021,0.088,0.043,0.191,0.064,0.313s0.041,0.249,0.061,0.384c0.018,0.136,0.027,0.263,0.027,0.379h0.076
			c0-0.381,0.064-0.794,0.195-1.239l2.188-7.371h4.43l-4.701,12.428h-4.212V152.324L133.009,152.324z"/>
		<path fill="#E6E6E5" d="M146.539,152.324h-4.234v-16.035h9.404v3.479h-5.17v3.06h4.768v3.478h-4.768V152.324L146.539,152.324z"/>
		<path fill="#E6E6E5" d="M158.688,152.544c-2.055,0-3.647-0.551-4.783-1.651c-1.137-1.1-1.703-2.666-1.703-4.699
			c0-2.099,0.525-3.709,1.578-4.83c1.052-1.123,2.554-1.684,4.506-1.684c1.857,0,3.292,0.486,4.305,1.463
			c1.012,0.978,1.52,2.383,1.52,4.217v1.91h-7.608c0.028,0.693,0.281,1.238,0.757,1.633c0.475,0.396,1.122,0.593,1.942,0.593
			c0.747,0,1.435-0.071,2.063-0.214c0.627-0.143,1.307-0.385,2.041-0.729v3.081c-0.669,0.344-1.357,0.582-2.068,0.713
			C160.521,152.479,159.674,152.544,158.688,152.544z M158.438,142.596c-0.502,0-0.92,0.159-1.258,0.479
			c-0.338,0.316-0.535,0.816-0.594,1.496h3.657c-0.015-0.6-0.185-1.078-0.507-1.438C159.414,142.775,158.98,142.596,158.438,142.596
			z"/>
		<path fill="#E6E6E5" d="M174.699,148.508c0,1.33-0.45,2.336-1.35,3.016c-0.9,0.681-2.191,1.021-3.875,1.021
			c-0.914,0-1.709-0.05-2.385-0.148c-0.675-0.098-1.363-0.278-2.066-0.543v-3.433c0.66,0.292,1.384,0.533,2.17,0.724
			c0.787,0.191,1.49,0.285,2.106,0.285c0.921,0,1.382-0.212,1.382-0.636c0-0.22-0.129-0.415-0.386-0.587
			c-0.258-0.172-1.007-0.507-2.248-1.004c-1.132-0.469-1.923-1-2.373-1.596c-0.448-0.597-0.675-1.352-0.675-2.266
			c0-1.154,0.441-2.055,1.328-2.697c0.885-0.645,2.137-0.965,3.755-0.965c0.813,0,1.576,0.088,2.291,0.269
			c0.715,0.179,1.457,0.44,2.228,0.784l-1.154,2.764c-0.565-0.256-1.164-0.475-1.797-0.652c-0.631-0.18-1.146-0.269-1.545-0.269
			c-0.696,0-1.045,0.172-1.045,0.516c0,0.212,0.121,0.394,0.364,0.542c0.243,0.15,0.945,0.456,2.106,0.916
			c0.863,0.358,1.507,0.71,1.932,1.053c0.426,0.345,0.736,0.748,0.936,1.213C174.6,147.277,174.699,147.842,174.699,148.508z"/>
		<path fill="#E6E6E5" d="M181.764,149.154c0.573,0,1.26-0.144,2.059-0.428v3.125c-0.573,0.25-1.119,0.426-1.639,0.532
			c-0.52,0.105-1.127,0.159-1.822,0.159c-1.43,0-2.461-0.354-3.092-1.059c-0.631-0.707-0.946-1.791-0.946-3.252v-5.123h-1.491
			v-1.743l1.895-1.349l1.1-2.61h2.785v2.489h3.025v3.213h-3.025v4.838C180.609,148.753,180.995,149.154,181.764,149.154z"/>
	</g>
	<g>
		<path fill="#E6E6E5" d="M55.729,143.313h6.922v8.645c-1.879,0.645-3.945,0.966-6.198,0.966c-2.472,0-4.382-0.717-5.731-2.149
			c-1.349-1.434-2.024-3.479-2.024-6.133c0-2.589,0.739-4.604,2.216-6.043c1.477-1.44,3.547-2.162,6.208-2.162
			c1.009,0,1.962,0.097,2.858,0.285c0.896,0.19,1.676,0.432,2.342,0.726l-1.371,3.399c-1.156-0.57-2.424-0.854-3.807-0.854
			c-1.265,0-2.243,0.411-2.934,1.233s-1.037,1.998-1.037,3.525c0,1.5,0.313,2.643,0.938,3.43c0.625,0.785,1.526,1.178,2.704,1.178
			c0.644,0,1.236-0.062,1.777-0.187v-2.512h-2.863V143.313z"/>
		<path fill="#E6E6E5" d="M78.185,144.345c0,2.677-0.737,4.738-2.21,6.188c-1.473,1.448-3.545,2.172-6.214,2.172h-5.188v-16.037
			h5.551c2.574,0,4.561,0.658,5.961,1.976C77.485,139.959,78.185,141.857,78.185,144.345z M73.688,144.498
			c0-1.471-0.291-2.561-0.872-3.27s-1.464-1.063-2.649-1.063h-1.262v8.983h0.965c1.316,0,2.282-0.383,2.896-1.146
			C73.38,147.238,73.688,146.07,73.688,144.498z"/>
		<path fill="#E6E6E5" d="M86.15,143.313h6.922v8.645c-1.879,0.645-3.945,0.966-6.198,0.966c-2.472,0-4.382-0.717-5.731-2.149
			c-1.349-1.434-2.024-3.479-2.024-6.133c0-2.589,0.739-4.604,2.216-6.043c1.477-1.44,3.547-2.162,6.208-2.162
			c1.009,0,1.962,0.097,2.858,0.285c0.896,0.19,1.676,0.432,2.342,0.726l-1.371,3.399c-1.156-0.57-2.424-0.854-3.807-0.854
			c-1.265,0-2.243,0.411-2.934,1.233s-1.037,1.998-1.037,3.525c0,1.5,0.313,2.643,0.938,3.43c0.625,0.785,1.526,1.178,2.704,1.178
			c0.644,0,1.236-0.062,1.777-0.187v-2.512H86.15V143.313z"/>
	</g>
	
		<radialGradient id="SVGID_9_" cx="102.6758" cy="1507.6777" r="20.1133" gradientTransform="matrix(0.498 0 0 0.498 -33.3509 -574.9915)" gradientUnits="userSpaceOnUse">
		<stop  offset="0" style="stop-color:#FFCF4F"/>
		<stop  offset="1" style="stop-color:#F4C236"/>
	</radialGradient>
	<path fill="url(#SVGID_9_)" d="M9.068,187h6.791c1.607,0,3.604-1.128,4.432-2.511l5.72-9.52c0.677-1.396,0.653-3.426-0.119-4.713
		l-3.378-5.592L9.068,187z"/>
	
		<radialGradient id="SVGID_10_" cx="90.625" cy="1497.4648" r="27.6567" gradientTransform="matrix(0.498 0 0 0.498 -33.3509 -574.9915)" gradientUnits="userSpaceOnUse">
		<stop  offset="0" style="stop-color:#08A960"/>
		<stop  offset="1" style="stop-color:#07914B"/>
	</radialGradient>
	<path fill="url(#SVGID_10_)" d="M16.368,159.514l-15.102,25.25C0.683,186.011,1.289,187,2.787,187h6.281l13.446-22.335
		l-6.146-10.173C17.197,155.87,17.197,158.13,16.368,159.514"/>
	
		<radialGradient id="SVGID_11_" cx="100.0762" cy="1457.7822" r="40.5378" gradientTransform="matrix(0.498 0 0 0.498 -33.3509 -574.9915)" gradientUnits="userSpaceOnUse">
		<stop  offset="0" style="stop-color:#567FC0"/>
		<stop  offset="1" style="stop-color:#557FC0"/>
	</radialGradient>
	<path fill="url(#SVGID_11_)" d="M2.787,127c-1.613,0-2.254,1.133-1.424,2.511l24.529,40.745c0.772,1.288,0.795,3.317,0.119,4.713
		l5.963-9.925L9.072,127H2.787z"/>
	
		<radialGradient id="SVGID_12_" cx="112.1406" cy="1447.8184" r="33.0577" gradientTransform="matrix(0.498 0 0 0.498 -33.3509 -574.9915)" gradientUnits="userSpaceOnUse">
		<stop  offset="0" style="stop-color:#E14C40"/>
		<stop  offset="1" style="stop-color:#CD392D"/>
	</radialGradient>
	<path fill="url(#SVGID_12_)" d="M9.072,127l22.903,38.045l3.321-5.529c0.83-1.386,0.83-3.646,0-5.023l-15.004-24.981
		C19.463,128.133,17.467,127,15.86,127H9.072z"/>
</g>
<g>
	<path fill="#4E4E4E" d="M60.516,49.627H50.477v-1.713l4.86-5.301c0.41-0.451,0.75-0.853,1.021-1.205
		c0.271-0.352,0.485-0.673,0.646-0.964c0.16-0.29,0.272-0.562,0.338-0.815c0.065-0.252,0.098-0.506,0.098-0.758
		c0-0.342-0.05-0.658-0.148-0.949c-0.1-0.29-0.243-0.541-0.431-0.754c-0.188-0.211-0.419-0.377-0.692-0.497
		c-0.273-0.119-0.588-0.179-0.943-0.179c-0.431,0-0.805,0.068-1.123,0.205c-0.317,0.137-0.581,0.326-0.789,0.568
		c-0.209,0.243-0.366,0.533-0.472,0.872c-0.106,0.338-0.159,0.709-0.159,1.112H50.19c0-0.656,0.111-1.273,0.333-1.851
		c0.222-0.577,0.548-1.082,0.979-1.513c0.43-0.431,0.96-0.771,1.589-1.021c0.629-0.249,1.347-0.374,2.153-0.374
		c0.745,0,1.408,0.098,1.989,0.292c0.581,0.195,1.071,0.47,1.472,0.825c0.399,0.355,0.703,0.789,0.912,1.298
		s0.313,1.075,0.313,1.696c0,0.465-0.074,0.926-0.225,1.38s-0.359,0.907-0.626,1.358s-0.585,0.904-0.954,1.358
		c-0.369,0.455-0.771,0.911-1.209,1.369l-3.333,3.568h6.932V49.627z"/>
	<path fill="#4E4E4E" d="M71.073,43.342c0,1.182-0.117,2.186-0.35,3.009c-0.232,0.824-0.561,1.494-0.984,2.01
		c-0.424,0.517-0.935,0.891-1.532,1.123c-0.599,0.232-1.267,0.349-2.005,0.349c-0.731,0-1.398-0.116-2-0.349
		s-1.117-0.606-1.548-1.123c-0.431-0.516-0.764-1.186-1-2.01c-0.235-0.823-0.354-1.827-0.354-3.009v-2.41
		c0-1.183,0.116-2.184,0.349-3.004s0.563-1.485,0.989-1.995c0.427-0.509,0.942-0.876,1.544-1.103
		c0.602-0.225,1.268-0.338,1.999-0.338c0.738,0,1.408,0.113,2.01,0.338c0.602,0.227,1.116,0.594,1.543,1.103
		c0.427,0.51,0.757,1.175,0.989,1.995s0.35,1.821,0.35,3.004V43.342z M68.581,40.553c0-0.76-0.053-1.396-0.159-1.913
		c-0.106-0.516-0.261-0.933-0.466-1.251c-0.205-0.317-0.457-0.547-0.754-0.687c-0.298-0.14-0.638-0.21-1.021-0.21
		s-0.723,0.07-1.021,0.21c-0.297,0.14-0.549,0.369-0.754,0.687c-0.205,0.318-0.36,0.735-0.466,1.251
		c-0.106,0.517-0.159,1.153-0.159,1.913v3.147c0,0.752,0.055,1.392,0.164,1.917c0.109,0.527,0.267,0.954,0.472,1.282
		s0.458,0.567,0.759,0.718s0.643,0.226,1.025,0.226c0.39,0,0.731-0.075,1.025-0.226s0.541-0.39,0.743-0.718s0.354-0.755,0.456-1.282
		c0.104-0.525,0.154-1.165,0.154-1.917V40.553z"/>
	<path fill="#4E4E4E" d="M78.953,49.627h-2.481V37.641l-3.66,1.25V36.79l5.824-2.143h0.317V49.627z"/>
	<path fill="#4E4E4E" d="M83.737,42.224l0.811-7.526h8.019v2.153h-5.948l-0.41,3.568c0.24-0.137,0.56-0.271,0.959-0.399
		c0.4-0.131,0.859-0.195,1.379-0.195c0.704,0,1.337,0.116,1.897,0.349s1.032,0.567,1.415,1.005s0.677,0.966,0.882,1.584
		c0.205,0.619,0.308,1.318,0.308,2.098c0,0.689-0.101,1.338-0.303,1.942c-0.201,0.605-0.506,1.132-0.912,1.579
		c-0.407,0.448-0.918,0.802-1.533,1.062s-1.336,0.39-2.164,0.39c-0.621,0-1.217-0.091-1.783-0.271
		c-0.568-0.182-1.072-0.449-1.513-0.805c-0.441-0.355-0.802-0.799-1.082-1.328s-0.44-1.141-0.481-1.83h2.409
		c0.096,0.725,0.355,1.279,0.779,1.666s0.978,0.579,1.661,0.579c0.403,0,0.757-0.075,1.062-0.226c0.304-0.15,0.557-0.36,0.759-0.631
		c0.201-0.27,0.354-0.591,0.456-0.964c0.103-0.372,0.154-0.784,0.154-1.235c0-0.424-0.057-0.816-0.17-1.18
		c-0.112-0.361-0.28-0.674-0.502-0.938c-0.223-0.264-0.499-0.469-0.831-0.615s-0.716-0.221-1.153-0.221
		c-0.287,0-0.538,0.022-0.754,0.066c-0.215,0.045-0.405,0.107-0.569,0.189s-0.314,0.177-0.451,0.282
		c-0.137,0.106-0.27,0.221-0.399,0.344L83.737,42.224z"/>
	<path fill="#4E4E4E" d="M106.297,45.782c0-0.301-0.045-0.568-0.134-0.805c-0.089-0.235-0.251-0.453-0.487-0.65
		c-0.235-0.199-0.561-0.389-0.974-0.569c-0.414-0.181-0.945-0.371-1.595-0.569c-0.711-0.212-1.367-0.455-1.969-0.729
		s-1.119-0.591-1.554-0.953c-0.434-0.362-0.774-0.779-1.021-1.251s-0.369-1.012-0.369-1.62c0-0.602,0.129-1.155,0.385-1.661
		c0.257-0.506,0.617-0.943,1.082-1.313s1.021-0.656,1.672-0.861c0.648-0.205,1.366-0.308,2.152-0.308
		c0.842,0,1.597,0.121,2.267,0.364s1.235,0.572,1.697,0.989c0.461,0.417,0.815,0.9,1.062,1.451s0.369,1.137,0.369,1.758h-2.584
		c0-0.361-0.057-0.695-0.17-0.999c-0.112-0.304-0.285-0.567-0.518-0.79c-0.232-0.222-0.526-0.395-0.882-0.518
		s-0.776-0.185-1.261-0.185c-0.459,0-0.855,0.052-1.189,0.153c-0.336,0.104-0.614,0.246-0.836,0.432
		c-0.223,0.184-0.387,0.402-0.492,0.656c-0.106,0.252-0.159,0.525-0.159,0.82c0,0.553,0.262,1.015,0.784,1.384
		c0.523,0.369,1.321,0.711,2.395,1.025c0.841,0.246,1.568,0.52,2.184,0.82s1.127,0.641,1.533,1.021
		c0.407,0.379,0.709,0.807,0.908,1.281c0.197,0.476,0.297,1.01,0.297,1.605c0,0.629-0.125,1.194-0.374,1.696
		c-0.25,0.503-0.605,0.931-1.066,1.282c-0.462,0.352-1.021,0.622-1.677,0.81c-0.656,0.188-1.388,0.282-2.194,0.282
		c-0.718,0-1.425-0.098-2.122-0.292c-0.697-0.195-1.323-0.489-1.877-0.882s-1-0.884-1.338-1.472
		c-0.339-0.588-0.508-1.278-0.508-2.071h2.594c0,0.472,0.084,0.877,0.252,1.215c0.167,0.339,0.396,0.615,0.687,0.831
		c0.291,0.215,0.634,0.372,1.03,0.472s0.824,0.148,1.282,0.148c0.902,0,1.581-0.183,2.035-0.549
		C106.069,46.868,106.297,46.383,106.297,45.782z"/>
	<path fill="#4E4E4E" d="M114.742,49.833c-0.82,0-1.559-0.137-2.215-0.41s-1.214-0.649-1.672-1.128s-0.811-1.046-1.057-1.702
		s-0.369-1.363-0.369-2.123v-0.41c0-0.875,0.13-1.666,0.391-2.373c0.259-0.708,0.615-1.309,1.066-1.805s0.982-0.879,1.594-1.148
		c0.612-0.27,1.27-0.405,1.975-0.405c0.806,0,1.507,0.136,2.102,0.405s1.087,0.647,1.477,1.133s0.68,1.063,0.871,1.732
		s0.287,1.405,0.287,2.205v1.066h-7.249c0.034,0.431,0.125,0.827,0.271,1.189c0.147,0.362,0.347,0.676,0.601,0.938
		c0.252,0.263,0.552,0.47,0.896,0.62c0.346,0.15,0.736,0.226,1.174,0.226c0.615,0,1.15-0.123,1.605-0.369
		c0.454-0.246,0.849-0.585,1.184-1.015l1.344,1.281c-0.178,0.267-0.398,0.525-0.661,0.774c-0.264,0.249-0.571,0.472-0.923,0.666
		c-0.353,0.195-0.751,0.353-1.195,0.472S115.295,49.833,114.742,49.833z M114.444,40.327c-0.684,0-1.235,0.24-1.656,0.719
		c-0.42,0.479-0.688,1.145-0.805,1.999h4.747V42.86c-0.02-0.328-0.073-0.645-0.158-0.948c-0.086-0.304-0.218-0.574-0.395-0.811
		c-0.179-0.235-0.409-0.423-0.692-0.563C115.201,40.397,114.854,40.327,114.444,40.327z"/>
	<path fill="#4E4E4E" d="M126.684,49.627c-0.069-0.13-0.125-0.283-0.17-0.461c-0.044-0.178-0.084-0.369-0.117-0.574
		c-0.164,0.17-0.348,0.331-0.549,0.481c-0.202,0.15-0.424,0.282-0.667,0.395c-0.242,0.113-0.506,0.202-0.789,0.267
		c-0.284,0.064-0.587,0.098-0.907,0.098c-0.555,0-1.063-0.084-1.528-0.251s-0.863-0.4-1.194-0.697
		c-0.332-0.298-0.592-0.647-0.779-1.052c-0.188-0.402-0.282-0.84-0.282-1.313c0-0.594,0.112-1.121,0.339-1.578
		c0.225-0.459,0.553-0.842,0.984-1.148c0.43-0.309,0.958-0.542,1.584-0.703c0.625-0.16,1.338-0.24,2.138-0.24h1.569v-0.729
		c0-0.574-0.161-1.033-0.482-1.379s-0.811-0.518-1.467-0.518c-0.294,0-0.561,0.039-0.799,0.117c-0.24,0.079-0.443,0.185-0.61,0.318
		c-0.168,0.133-0.298,0.292-0.39,0.477c-0.093,0.185-0.139,0.383-0.139,0.595h-2.492c0-0.438,0.108-0.859,0.323-1.267
		c0.216-0.406,0.521-0.769,0.918-1.087c0.396-0.317,0.877-0.572,1.44-0.764c0.564-0.191,1.195-0.287,1.893-0.287
		c0.621,0,1.195,0.081,1.723,0.241c0.525,0.16,0.98,0.399,1.363,0.718c0.383,0.317,0.68,0.714,0.893,1.189
		c0.211,0.476,0.317,1.03,0.317,1.666v4.922c0,0.998,0.14,1.794,0.421,2.39v0.174H126.684z M123.945,47.833
		c0.287,0,0.556-0.037,0.805-0.112c0.25-0.075,0.476-0.175,0.677-0.298c0.202-0.123,0.378-0.264,0.528-0.425s0.27-0.323,0.359-0.487
		v-2.092h-1.344c-0.923,0-1.617,0.16-2.082,0.482c-0.465,0.32-0.697,0.775-0.697,1.363c0,0.226,0.038,0.434,0.113,0.625
		s0.188,0.357,0.338,0.498s0.334,0.25,0.549,0.328C123.407,47.793,123.658,47.833,123.945,47.833z"/>
	<path fill="#4E4E4E" d="M136.563,46.613c0-0.178-0.028-0.344-0.087-0.497c-0.058-0.154-0.173-0.298-0.343-0.431
		c-0.172-0.134-0.412-0.259-0.724-0.374c-0.311-0.117-0.716-0.227-1.215-0.328c-0.595-0.123-1.137-0.277-1.625-0.462
		c-0.489-0.185-0.907-0.408-1.257-0.672c-0.348-0.263-0.62-0.572-0.814-0.928c-0.195-0.355-0.293-0.766-0.293-1.23
		c0-0.451,0.1-0.88,0.298-1.287c0.198-0.406,0.483-0.764,0.856-1.071c0.372-0.308,0.823-0.552,1.354-0.733
		c0.529-0.181,1.123-0.271,1.779-0.271c0.689,0,1.311,0.091,1.86,0.271c0.551,0.182,1.017,0.431,1.399,0.749
		c0.383,0.317,0.676,0.691,0.877,1.123c0.202,0.43,0.303,0.895,0.303,1.395h-2.492c0-0.213-0.041-0.419-0.123-0.621
		c-0.082-0.201-0.205-0.381-0.369-0.538s-0.367-0.282-0.609-0.374c-0.243-0.093-0.525-0.139-0.846-0.139
		c-0.315,0-0.589,0.039-0.82,0.118c-0.233,0.079-0.426,0.181-0.58,0.308c-0.153,0.127-0.269,0.273-0.344,0.44
		c-0.075,0.168-0.112,0.344-0.112,0.528s0.034,0.349,0.103,0.492s0.189,0.273,0.364,0.39c0.174,0.116,0.408,0.224,0.702,0.323
		s0.663,0.196,1.107,0.292c0.643,0.137,1.219,0.298,1.728,0.481c0.51,0.186,0.94,0.41,1.292,0.678
		c0.353,0.266,0.621,0.58,0.805,0.943c0.186,0.361,0.277,0.793,0.277,1.291c0,0.492-0.106,0.943-0.318,1.354
		s-0.514,0.765-0.907,1.062c-0.393,0.298-0.866,0.528-1.42,0.692s-1.169,0.246-1.846,0.246c-0.759,0-1.431-0.107-2.015-0.323
		c-0.585-0.215-1.075-0.497-1.472-0.846s-0.695-0.743-0.897-1.185c-0.201-0.44-0.303-0.891-0.303-1.348h2.42
		c0.021,0.342,0.1,0.629,0.236,0.861s0.311,0.42,0.523,0.563c0.211,0.144,0.451,0.248,0.717,0.313
		c0.268,0.065,0.54,0.098,0.82,0.098c0.656,0,1.155-0.124,1.498-0.374C136.392,47.342,136.563,47.016,136.563,46.613z"/>
	<path fill="#4E4E4E" d="M139.645,43.977c0-0.807,0.118-1.553,0.354-2.24c0.235-0.687,0.574-1.283,1.015-1.789
		c0.441-0.506,0.979-0.902,1.615-1.189s1.356-0.431,2.164-0.431c0.813,0,1.541,0.144,2.184,0.431s1.185,0.684,1.625,1.189
		c0.441,0.506,0.777,1.103,1.01,1.789c0.232,0.688,0.35,1.434,0.35,2.24v0.216c0,0.807-0.117,1.556-0.35,2.245
		c-0.232,0.691-0.568,1.287-1.01,1.79c-0.44,0.502-0.98,0.896-1.62,1.179c-0.639,0.283-1.362,0.426-2.169,0.426
		c-0.813,0-1.539-0.143-2.179-0.426c-0.639-0.283-1.179-0.677-1.62-1.179c-0.44-0.503-0.779-1.099-1.015-1.79
		c-0.236-0.689-0.354-1.438-0.354-2.245V43.977z M142.137,44.193c0,0.499,0.051,0.971,0.154,1.415
		c0.102,0.444,0.263,0.832,0.481,1.164s0.497,0.593,0.836,0.784c0.338,0.191,0.739,0.287,1.204,0.287
		c0.458,0,0.856-0.096,1.195-0.287c0.338-0.191,0.615-0.452,0.83-0.784c0.216-0.332,0.376-0.72,0.482-1.164
		c0.105-0.444,0.158-0.916,0.158-1.415v-0.216c0-0.492-0.053-0.958-0.158-1.399c-0.106-0.44-0.269-0.827-0.487-1.158
		s-0.497-0.597-0.836-0.795c-0.338-0.198-0.74-0.298-1.204-0.298c-0.466,0-0.863,0.1-1.195,0.298
		c-0.331,0.198-0.606,0.464-0.825,0.795s-0.38,0.718-0.481,1.158c-0.104,0.441-0.154,0.907-0.154,1.399V44.193z"/>
	<path fill="#4E4E4E" d="M153.309,38.533l0.072,1.282c0.389-0.473,0.857-0.838,1.404-1.098s1.155-0.39,1.825-0.39
		c0.533,0,1.017,0.073,1.451,0.221c0.434,0.147,0.805,0.384,1.112,0.712s0.545,0.756,0.713,1.282
		c0.167,0.526,0.251,1.165,0.251,1.917v7.168h-2.491V42.44c0-0.383-0.043-0.706-0.129-0.97c-0.085-0.263-0.21-0.477-0.374-0.641
		s-0.367-0.282-0.61-0.354c-0.242-0.072-0.521-0.108-0.836-0.108c-0.512,0-0.958,0.123-1.338,0.369
		c-0.379,0.246-0.682,0.578-0.907,0.995v7.896h-2.491V38.533H153.309z"/>
</g>
<g>
	<path fill="#4E4E4E" d="M60.577,112.305H50.539v-1.713l4.86-5.301c0.41-0.451,0.75-0.852,1.021-1.205
		c0.271-0.352,0.485-0.672,0.646-0.963c0.16-0.291,0.272-0.563,0.338-0.816c0.065-0.252,0.098-0.506,0.098-0.758
		c0-0.342-0.05-0.658-0.148-0.949c-0.1-0.289-0.243-0.541-0.431-0.754c-0.188-0.211-0.419-0.377-0.692-0.496s-0.588-0.18-0.943-0.18
		c-0.431,0-0.805,0.068-1.123,0.205c-0.317,0.137-0.581,0.326-0.789,0.568c-0.209,0.244-0.366,0.533-0.472,0.873
		c-0.106,0.338-0.159,0.709-0.159,1.111h-2.492c0-0.656,0.111-1.273,0.333-1.85c0.222-0.578,0.548-1.082,0.979-1.514
		c0.43-0.43,0.96-0.77,1.589-1.02s1.347-0.375,2.153-0.375c0.745,0,1.408,0.098,1.989,0.293s1.071,0.469,1.472,0.824
		c0.399,0.355,0.703,0.789,0.912,1.299c0.209,0.508,0.313,1.074,0.313,1.695c0,0.465-0.074,0.926-0.225,1.381
		c-0.15,0.453-0.359,0.906-0.626,1.357s-0.585,0.904-0.954,1.359s-0.771,0.91-1.209,1.369l-3.333,3.568h6.932V112.305z"/>
	<path fill="#4E4E4E" d="M71.135,106.02c0,1.182-0.117,2.186-0.35,3.01s-0.561,1.494-0.984,2.01s-0.935,0.891-1.532,1.123
		c-0.599,0.232-1.267,0.348-2.005,0.348c-0.731,0-1.398-0.115-2-0.348s-1.117-0.607-1.548-1.123s-0.764-1.186-1-2.01
		c-0.235-0.824-0.354-1.828-0.354-3.01v-2.41c0-1.182,0.116-2.184,0.349-3.004s0.563-1.484,0.989-1.994s0.942-0.877,1.544-1.104
		c0.602-0.225,1.268-0.338,1.999-0.338c0.738,0,1.408,0.113,2.01,0.338c0.602,0.227,1.116,0.594,1.543,1.104
		s0.757,1.174,0.989,1.994s0.35,1.822,0.35,3.004V106.02z M68.643,103.23c0-0.76-0.053-1.396-0.159-1.912s-0.261-0.934-0.466-1.252
		c-0.205-0.316-0.457-0.547-0.754-0.686c-0.298-0.141-0.638-0.211-1.021-0.211s-0.723,0.07-1.021,0.211
		c-0.297,0.139-0.549,0.369-0.754,0.686c-0.205,0.318-0.36,0.736-0.466,1.252c-0.106,0.516-0.159,1.152-0.159,1.912v3.148
		c0,0.752,0.055,1.391,0.164,1.916c0.109,0.527,0.267,0.955,0.472,1.283s0.458,0.566,0.759,0.717s0.643,0.227,1.025,0.227
		c0.39,0,0.731-0.076,1.025-0.227s0.541-0.389,0.743-0.717s0.354-0.756,0.456-1.283c0.104-0.525,0.154-1.164,0.154-1.916V103.23z"/>
	<path fill="#4E4E4E" d="M79.015,112.305h-2.481v-11.986l-3.66,1.25v-2.102l5.824-2.143h0.317V112.305z"/>
	<path fill="#4E4E4E" d="M83.799,104.902l0.811-7.527h8.019v2.154H86.68l-0.41,3.568c0.24-0.137,0.56-0.271,0.959-0.4
		c0.4-0.131,0.859-0.195,1.379-0.195c0.704,0,1.337,0.117,1.897,0.35s1.032,0.566,1.415,1.004s0.677,0.967,0.882,1.584
		c0.205,0.619,0.308,1.318,0.308,2.098c0,0.689-0.101,1.338-0.303,1.943c-0.201,0.605-0.506,1.131-0.912,1.578
		c-0.407,0.449-0.918,0.803-1.533,1.063s-1.336,0.389-2.164,0.389c-0.621,0-1.217-0.09-1.783-0.271
		c-0.568-0.182-1.072-0.449-1.513-0.805c-0.441-0.355-0.802-0.799-1.082-1.328s-0.44-1.141-0.481-1.83h2.409
		c0.096,0.725,0.355,1.279,0.779,1.666s0.978,0.58,1.661,0.58c0.403,0,0.757-0.076,1.062-0.227c0.304-0.15,0.557-0.359,0.759-0.631
		c0.201-0.27,0.354-0.59,0.456-0.963s0.154-0.785,0.154-1.236c0-0.424-0.057-0.816-0.17-1.18c-0.112-0.361-0.28-0.674-0.502-0.938
		c-0.223-0.264-0.499-0.469-0.831-0.615s-0.716-0.221-1.153-0.221c-0.287,0-0.538,0.023-0.754,0.066
		c-0.215,0.045-0.405,0.107-0.569,0.189s-0.314,0.178-0.451,0.283s-0.27,0.221-0.399,0.344L83.799,104.902z"/>
	<path fill="#4E4E4E" d="M106.358,108.459c0-0.301-0.045-0.568-0.134-0.805c-0.089-0.234-0.251-0.453-0.487-0.65
		c-0.235-0.199-0.561-0.389-0.974-0.568c-0.414-0.182-0.945-0.371-1.595-0.57c-0.711-0.211-1.367-0.455-1.969-0.729
		s-1.119-0.59-1.554-0.953c-0.434-0.361-0.774-0.779-1.021-1.25c-0.246-0.473-0.369-1.012-0.369-1.621
		c0-0.602,0.129-1.154,0.385-1.66c0.257-0.506,0.617-0.943,1.082-1.313s1.021-0.656,1.672-0.861
		c0.648-0.205,1.366-0.309,2.152-0.309c0.842,0,1.597,0.121,2.267,0.365c0.67,0.242,1.235,0.572,1.697,0.988
		c0.461,0.418,0.815,0.9,1.062,1.451s0.369,1.137,0.369,1.758h-2.584c0-0.361-0.057-0.695-0.17-0.998
		c-0.112-0.305-0.285-0.568-0.518-0.791c-0.232-0.221-0.526-0.395-0.882-0.518s-0.776-0.184-1.261-0.184
		c-0.459,0-0.855,0.051-1.189,0.152c-0.336,0.104-0.614,0.246-0.836,0.432c-0.223,0.184-0.387,0.402-0.492,0.656
		c-0.106,0.252-0.159,0.525-0.159,0.82c0,0.553,0.262,1.016,0.784,1.385c0.523,0.369,1.321,0.711,2.395,1.025
		c0.841,0.246,1.568,0.52,2.184,0.82s1.127,0.641,1.533,1.02c0.407,0.379,0.709,0.807,0.908,1.281
		c0.197,0.477,0.297,1.01,0.297,1.605c0,0.629-0.125,1.195-0.374,1.697c-0.25,0.502-0.605,0.93-1.066,1.281
		c-0.462,0.352-1.021,0.623-1.677,0.811s-1.388,0.281-2.194,0.281c-0.718,0-1.425-0.098-2.122-0.291
		c-0.697-0.195-1.323-0.49-1.877-0.883s-1-0.883-1.338-1.471c-0.339-0.588-0.508-1.279-0.508-2.072h2.594
		c0,0.473,0.084,0.877,0.252,1.215c0.167,0.34,0.396,0.615,0.687,0.832c0.291,0.215,0.634,0.371,1.03,0.471s0.824,0.148,1.282,0.148
		c0.902,0,1.581-0.182,2.035-0.549C106.131,109.545,106.358,109.061,106.358,108.459z"/>
	<path fill="#4E4E4E" d="M114.804,112.51c-0.82,0-1.559-0.137-2.215-0.41s-1.214-0.648-1.672-1.127s-0.811-1.047-1.057-1.703
		s-0.369-1.363-0.369-2.123v-0.41c0-0.875,0.13-1.666,0.391-2.373c0.259-0.707,0.615-1.309,1.066-1.805s0.982-0.879,1.594-1.148
		c0.612-0.27,1.27-0.404,1.975-0.404c0.806,0,1.507,0.135,2.102,0.404s1.087,0.648,1.477,1.133c0.39,0.486,0.68,1.063,0.871,1.732
		s0.287,1.406,0.287,2.205v1.066h-7.249c0.034,0.432,0.125,0.828,0.271,1.189c0.147,0.363,0.347,0.676,0.601,0.939
		c0.252,0.262,0.552,0.469,0.896,0.619c0.346,0.15,0.736,0.227,1.174,0.227c0.615,0,1.15-0.123,1.605-0.369
		c0.454-0.246,0.849-0.586,1.184-1.016l1.344,1.281c-0.178,0.268-0.398,0.525-0.661,0.775c-0.264,0.248-0.571,0.471-0.923,0.666
		c-0.353,0.195-0.751,0.352-1.195,0.471S115.356,112.51,114.804,112.51z M114.506,103.004c-0.684,0-1.235,0.24-1.656,0.719
		c-0.42,0.479-0.688,1.145-0.805,2h4.747v-0.186c-0.02-0.328-0.073-0.645-0.158-0.947c-0.086-0.305-0.218-0.574-0.395-0.811
		c-0.179-0.236-0.409-0.424-0.692-0.564C115.263,103.074,114.916,103.004,114.506,103.004z"/>
	<path fill="#4E4E4E" d="M126.745,112.305c-0.069-0.129-0.125-0.283-0.17-0.461c-0.044-0.178-0.084-0.369-0.117-0.574
		c-0.164,0.17-0.348,0.332-0.549,0.482c-0.202,0.15-0.424,0.281-0.667,0.395c-0.242,0.113-0.506,0.201-0.789,0.266
		c-0.284,0.064-0.587,0.098-0.907,0.098c-0.555,0-1.063-0.084-1.528-0.25c-0.465-0.168-0.863-0.4-1.194-0.697
		c-0.332-0.299-0.592-0.648-0.779-1.053c-0.188-0.402-0.282-0.84-0.282-1.313c0-0.594,0.112-1.121,0.339-1.578
		c0.225-0.459,0.553-0.842,0.984-1.148c0.43-0.309,0.958-0.541,1.584-0.703c0.625-0.16,1.338-0.24,2.138-0.24h1.569v-0.729
		c0-0.574-0.161-1.033-0.482-1.379s-0.811-0.518-1.467-0.518c-0.294,0-0.561,0.039-0.799,0.117c-0.24,0.08-0.443,0.186-0.61,0.318
		c-0.168,0.133-0.298,0.293-0.39,0.477c-0.093,0.186-0.139,0.383-0.139,0.596h-2.492c0-0.438,0.108-0.859,0.323-1.268
		c0.216-0.406,0.521-0.768,0.918-1.086s0.877-0.572,1.44-0.764c0.564-0.191,1.195-0.287,1.893-0.287c0.621,0,1.195,0.08,1.723,0.24
		c0.525,0.16,0.98,0.4,1.363,0.719c0.383,0.316,0.68,0.713,0.893,1.189c0.211,0.475,0.317,1.029,0.317,1.666v4.922
		c0,0.998,0.14,1.793,0.421,2.389v0.174H126.745z M124.007,110.51c0.287,0,0.556-0.037,0.805-0.111
		c0.25-0.076,0.476-0.176,0.677-0.299c0.202-0.123,0.378-0.264,0.528-0.424c0.15-0.162,0.27-0.324,0.359-0.488v-2.092h-1.344
		c-0.923,0-1.617,0.16-2.082,0.482c-0.465,0.32-0.697,0.775-0.697,1.363c0,0.227,0.038,0.434,0.113,0.625s0.188,0.357,0.338,0.498
		s0.334,0.25,0.549,0.328C123.469,110.471,123.72,110.51,124.007,110.51z"/>
	<path fill="#4E4E4E" d="M136.624,109.291c0-0.178-0.028-0.344-0.087-0.498c-0.058-0.154-0.173-0.297-0.343-0.43
		c-0.172-0.135-0.412-0.26-0.724-0.375c-0.311-0.117-0.716-0.227-1.215-0.328c-0.595-0.123-1.137-0.277-1.625-0.461
		c-0.489-0.186-0.907-0.408-1.257-0.672c-0.348-0.264-0.62-0.572-0.814-0.928c-0.195-0.355-0.293-0.766-0.293-1.23
		c0-0.451,0.1-0.881,0.298-1.287s0.483-0.764,0.856-1.072c0.372-0.307,0.823-0.551,1.354-0.732c0.529-0.182,1.123-0.271,1.779-0.271
		c0.689,0,1.311,0.09,1.86,0.271c0.551,0.182,1.017,0.43,1.399,0.748s0.676,0.691,0.877,1.123c0.202,0.43,0.303,0.895,0.303,1.395
		h-2.492c0-0.213-0.041-0.418-0.123-0.621c-0.082-0.201-0.205-0.381-0.369-0.537c-0.164-0.158-0.367-0.283-0.609-0.375
		c-0.243-0.092-0.525-0.139-0.846-0.139c-0.315,0-0.589,0.039-0.82,0.119c-0.233,0.078-0.426,0.18-0.58,0.307
		c-0.153,0.127-0.269,0.273-0.344,0.441s-0.112,0.344-0.112,0.527c0,0.186,0.034,0.35,0.103,0.492
		c0.068,0.145,0.189,0.273,0.364,0.391c0.174,0.115,0.408,0.223,0.702,0.322s0.663,0.197,1.107,0.293
		c0.643,0.137,1.219,0.297,1.728,0.48c0.51,0.186,0.94,0.41,1.292,0.678c0.353,0.266,0.621,0.58,0.805,0.943
		c0.186,0.361,0.277,0.793,0.277,1.291c0,0.492-0.106,0.943-0.318,1.354s-0.514,0.766-0.907,1.063
		c-0.393,0.297-0.866,0.527-1.42,0.691s-1.169,0.246-1.846,0.246c-0.759,0-1.431-0.107-2.015-0.322
		c-0.585-0.215-1.075-0.498-1.472-0.846c-0.396-0.35-0.695-0.744-0.897-1.186c-0.201-0.439-0.303-0.891-0.303-1.348h2.42
		c0.021,0.342,0.1,0.629,0.236,0.861s0.311,0.42,0.523,0.564c0.211,0.143,0.451,0.248,0.717,0.313
		c0.268,0.064,0.54,0.098,0.82,0.098c0.656,0,1.155-0.125,1.498-0.375C136.453,110.02,136.624,109.693,136.624,109.291z"/>
	<path fill="#4E4E4E" d="M139.706,106.654c0-0.807,0.118-1.553,0.354-2.24c0.235-0.686,0.574-1.283,1.015-1.789
		c0.441-0.506,0.979-0.902,1.615-1.189s1.356-0.43,2.164-0.43c0.813,0,1.541,0.143,2.184,0.43s1.185,0.684,1.625,1.189
		c0.441,0.506,0.777,1.104,1.01,1.789c0.232,0.688,0.35,1.434,0.35,2.24v0.217c0,0.807-0.117,1.555-0.35,2.244
		c-0.232,0.691-0.568,1.287-1.01,1.791c-0.44,0.502-0.98,0.895-1.62,1.178c-0.639,0.283-1.362,0.426-2.169,0.426
		c-0.813,0-1.539-0.143-2.179-0.426c-0.639-0.283-1.179-0.676-1.62-1.178c-0.44-0.504-0.779-1.1-1.015-1.791
		c-0.236-0.689-0.354-1.438-0.354-2.244V106.654z M142.198,106.871c0,0.498,0.051,0.971,0.154,1.414
		c0.102,0.445,0.263,0.832,0.481,1.164s0.497,0.594,0.836,0.785c0.338,0.191,0.739,0.287,1.204,0.287
		c0.458,0,0.856-0.096,1.195-0.287c0.338-0.191,0.615-0.453,0.83-0.785c0.216-0.332,0.376-0.719,0.482-1.164
		c0.105-0.443,0.158-0.916,0.158-1.414v-0.217c0-0.492-0.053-0.957-0.158-1.398c-0.106-0.441-0.269-0.828-0.487-1.158
		c-0.219-0.332-0.497-0.598-0.836-0.795c-0.338-0.199-0.74-0.299-1.204-0.299c-0.466,0-0.863,0.1-1.195,0.299
		c-0.331,0.197-0.606,0.463-0.825,0.795c-0.219,0.33-0.38,0.717-0.481,1.158c-0.104,0.441-0.154,0.906-0.154,1.398V106.871z"/>
	<path fill="#4E4E4E" d="M153.37,101.211l0.072,1.281c0.389-0.473,0.857-0.838,1.404-1.098s1.155-0.389,1.825-0.389
		c0.533,0,1.017,0.072,1.451,0.221c0.434,0.146,0.805,0.383,1.112,0.711s0.545,0.756,0.713,1.283
		c0.167,0.525,0.251,1.164,0.251,1.916v7.168h-2.491v-7.188c0-0.383-0.043-0.705-0.129-0.969c-0.085-0.264-0.21-0.477-0.374-0.641
		s-0.367-0.283-0.61-0.354c-0.242-0.072-0.521-0.109-0.836-0.109c-0.512,0-0.958,0.123-1.338,0.369
		c-0.379,0.246-0.682,0.578-0.907,0.996v7.895h-2.491v-11.094H153.37z"/>
</g>
<g>
	<path fill="#E6E6E5" d="M60.577,174.195H50.539v-1.713l4.86-5.301c0.41-0.451,0.75-0.852,1.021-1.205
		c0.271-0.352,0.485-0.672,0.646-0.963c0.16-0.291,0.272-0.563,0.338-0.816c0.065-0.252,0.098-0.506,0.098-0.758
		c0-0.342-0.05-0.658-0.148-0.949c-0.1-0.289-0.243-0.541-0.431-0.754c-0.188-0.211-0.419-0.377-0.692-0.496s-0.588-0.18-0.943-0.18
		c-0.431,0-0.805,0.068-1.123,0.205c-0.317,0.137-0.581,0.326-0.789,0.568c-0.209,0.244-0.366,0.533-0.472,0.873
		c-0.106,0.338-0.159,0.709-0.159,1.111h-2.492c0-0.656,0.111-1.273,0.333-1.85c0.222-0.578,0.548-1.082,0.979-1.514
		c0.43-0.43,0.96-0.77,1.589-1.02s1.347-0.375,2.153-0.375c0.745,0,1.408,0.098,1.989,0.293s1.071,0.469,1.472,0.824
		c0.399,0.355,0.703,0.789,0.912,1.299c0.209,0.508,0.313,1.074,0.313,1.695c0,0.465-0.074,0.926-0.225,1.381
		c-0.15,0.453-0.359,0.906-0.626,1.357s-0.585,0.904-0.954,1.359s-0.771,0.91-1.209,1.369l-3.333,3.568h6.932V174.195z"/>
	<path fill="#E6E6E5" d="M71.135,167.91c0,1.182-0.117,2.186-0.35,3.01s-0.561,1.494-0.984,2.01s-0.935,0.891-1.532,1.123
		c-0.599,0.232-1.267,0.348-2.005,0.348c-0.731,0-1.398-0.115-2-0.348s-1.117-0.607-1.548-1.123s-0.764-1.186-1-2.01
		c-0.235-0.824-0.354-1.828-0.354-3.01v-2.41c0-1.182,0.116-2.184,0.349-3.004s0.563-1.484,0.989-1.994s0.942-0.877,1.544-1.104
		c0.602-0.225,1.268-0.338,1.999-0.338c0.738,0,1.408,0.113,2.01,0.338c0.602,0.227,1.116,0.594,1.543,1.104
		s0.757,1.174,0.989,1.994s0.35,1.822,0.35,3.004V167.91z M68.643,165.121c0-0.76-0.053-1.396-0.159-1.912s-0.261-0.934-0.466-1.252
		c-0.205-0.316-0.457-0.547-0.754-0.686c-0.298-0.141-0.638-0.211-1.021-0.211s-0.723,0.07-1.021,0.211
		c-0.297,0.139-0.549,0.369-0.754,0.686c-0.205,0.318-0.36,0.736-0.466,1.252c-0.106,0.516-0.159,1.152-0.159,1.912v3.148
		c0,0.752,0.055,1.391,0.164,1.916c0.109,0.527,0.267,0.955,0.472,1.283s0.458,0.566,0.759,0.717s0.643,0.227,1.025,0.227
		c0.39,0,0.731-0.076,1.025-0.227s0.541-0.389,0.743-0.717s0.354-0.756,0.456-1.283c0.104-0.525,0.154-1.164,0.154-1.916V165.121z"
		/>
	<path fill="#E6E6E5" d="M79.015,174.195h-2.481v-11.986l-3.66,1.25v-2.102l5.824-2.143h0.317V174.195z"/>
	<path fill="#E6E6E5" d="M83.799,166.793l0.811-7.527h8.019v2.154H86.68l-0.41,3.568c0.24-0.137,0.56-0.271,0.959-0.4
		c0.4-0.131,0.859-0.195,1.379-0.195c0.704,0,1.337,0.117,1.897,0.35s1.032,0.566,1.415,1.004s0.677,0.967,0.882,1.584
		c0.205,0.619,0.308,1.318,0.308,2.098c0,0.689-0.101,1.338-0.303,1.943c-0.201,0.605-0.506,1.131-0.912,1.578
		c-0.407,0.449-0.918,0.803-1.533,1.063s-1.336,0.389-2.164,0.389c-0.621,0-1.217-0.09-1.783-0.271
		c-0.568-0.182-1.072-0.449-1.513-0.805c-0.441-0.355-0.802-0.799-1.082-1.328s-0.44-1.141-0.481-1.83h2.409
		c0.096,0.725,0.355,1.279,0.779,1.666s0.978,0.58,1.661,0.58c0.403,0,0.757-0.076,1.062-0.227c0.304-0.15,0.557-0.359,0.759-0.631
		c0.201-0.27,0.354-0.59,0.456-0.963s0.154-0.785,0.154-1.236c0-0.424-0.057-0.816-0.17-1.18c-0.112-0.361-0.28-0.674-0.502-0.938
		c-0.223-0.264-0.499-0.469-0.831-0.615s-0.716-0.221-1.153-0.221c-0.287,0-0.538,0.023-0.754,0.066
		c-0.215,0.045-0.405,0.107-0.569,0.189s-0.314,0.178-0.451,0.283s-0.27,0.221-0.399,0.344L83.799,166.793z"/>
	<path fill="#E6E6E5" d="M106.358,170.35c0-0.301-0.045-0.568-0.134-0.805c-0.089-0.234-0.251-0.453-0.487-0.65
		c-0.235-0.199-0.561-0.389-0.974-0.568c-0.414-0.182-0.945-0.371-1.595-0.57c-0.711-0.211-1.367-0.455-1.969-0.729
		s-1.119-0.59-1.554-0.953c-0.434-0.361-0.774-0.779-1.021-1.25c-0.246-0.473-0.369-1.012-0.369-1.621
		c0-0.602,0.129-1.154,0.385-1.66c0.257-0.506,0.617-0.943,1.082-1.313s1.021-0.656,1.672-0.861
		c0.648-0.205,1.366-0.309,2.152-0.309c0.842,0,1.597,0.121,2.267,0.365c0.67,0.242,1.235,0.572,1.697,0.988
		c0.461,0.418,0.815,0.9,1.062,1.451s0.369,1.137,0.369,1.758h-2.584c0-0.361-0.057-0.695-0.17-0.998
		c-0.112-0.305-0.285-0.568-0.518-0.791c-0.232-0.221-0.526-0.395-0.882-0.518s-0.776-0.184-1.261-0.184
		c-0.459,0-0.855,0.051-1.189,0.152c-0.336,0.104-0.614,0.246-0.836,0.432c-0.223,0.184-0.387,0.402-0.492,0.656
		c-0.106,0.252-0.159,0.525-0.159,0.82c0,0.553,0.262,1.016,0.784,1.385c0.523,0.369,1.321,0.711,2.395,1.025
		c0.841,0.246,1.568,0.52,2.184,0.82s1.127,0.641,1.533,1.02c0.407,0.379,0.709,0.807,0.908,1.281
		c0.197,0.477,0.297,1.01,0.297,1.605c0,0.629-0.125,1.195-0.374,1.697c-0.25,0.502-0.605,0.93-1.066,1.281
		c-0.462,0.352-1.021,0.623-1.677,0.811s-1.388,0.281-2.194,0.281c-0.718,0-1.425-0.098-2.122-0.291
		c-0.697-0.195-1.323-0.49-1.877-0.883s-1-0.883-1.338-1.471c-0.339-0.588-0.508-1.279-0.508-2.072h2.594
		c0,0.473,0.084,0.877,0.252,1.215c0.167,0.34,0.396,0.615,0.687,0.832c0.291,0.215,0.634,0.371,1.03,0.471s0.824,0.148,1.282,0.148
		c0.902,0,1.581-0.182,2.035-0.549C106.131,171.436,106.358,170.951,106.358,170.35z"/>
	<path fill="#E6E6E5" d="M114.804,174.4c-0.82,0-1.559-0.137-2.215-0.41s-1.214-0.648-1.672-1.127s-0.811-1.047-1.057-1.703
		s-0.369-1.363-0.369-2.123v-0.41c0-0.875,0.13-1.666,0.391-2.373c0.259-0.707,0.615-1.309,1.066-1.805s0.982-0.879,1.594-1.148
		c0.612-0.27,1.27-0.404,1.975-0.404c0.806,0,1.507,0.135,2.102,0.404s1.087,0.648,1.477,1.133c0.39,0.486,0.68,1.063,0.871,1.732
		s0.287,1.406,0.287,2.205v1.066h-7.249c0.034,0.432,0.125,0.828,0.271,1.189c0.147,0.363,0.347,0.676,0.601,0.939
		c0.252,0.262,0.552,0.469,0.896,0.619c0.346,0.15,0.736,0.227,1.174,0.227c0.615,0,1.15-0.123,1.605-0.369
		c0.454-0.246,0.849-0.586,1.184-1.016l1.344,1.281c-0.178,0.268-0.398,0.525-0.661,0.775c-0.264,0.248-0.571,0.471-0.923,0.666
		c-0.353,0.195-0.751,0.352-1.195,0.471S115.356,174.4,114.804,174.4z M114.506,164.895c-0.684,0-1.235,0.24-1.656,0.719
		c-0.42,0.479-0.688,1.145-0.805,2h4.747v-0.186c-0.02-0.328-0.073-0.645-0.158-0.947c-0.086-0.305-0.218-0.574-0.395-0.811
		c-0.179-0.236-0.409-0.424-0.692-0.564C115.263,164.965,114.916,164.895,114.506,164.895z"/>
	<path fill="#E6E6E5" d="M126.745,174.195c-0.069-0.129-0.125-0.283-0.17-0.461c-0.044-0.178-0.084-0.369-0.117-0.574
		c-0.164,0.17-0.348,0.332-0.549,0.482c-0.202,0.15-0.424,0.281-0.667,0.395c-0.242,0.113-0.506,0.201-0.789,0.266
		c-0.284,0.064-0.587,0.098-0.907,0.098c-0.555,0-1.063-0.084-1.528-0.25c-0.465-0.168-0.863-0.4-1.194-0.697
		c-0.332-0.299-0.592-0.648-0.779-1.053c-0.188-0.402-0.282-0.84-0.282-1.313c0-0.594,0.112-1.121,0.339-1.578
		c0.225-0.459,0.553-0.842,0.984-1.148c0.43-0.309,0.958-0.541,1.584-0.703c0.625-0.16,1.338-0.24,2.138-0.24h1.569v-0.729
		c0-0.574-0.161-1.033-0.482-1.379s-0.811-0.518-1.467-0.518c-0.294,0-0.561,0.039-0.799,0.117c-0.24,0.08-0.443,0.186-0.61,0.318
		c-0.168,0.133-0.298,0.293-0.39,0.477c-0.093,0.186-0.139,0.383-0.139,0.596h-2.492c0-0.438,0.108-0.859,0.323-1.268
		c0.216-0.406,0.521-0.768,0.918-1.086s0.877-0.572,1.44-0.764c0.564-0.191,1.195-0.287,1.893-0.287c0.621,0,1.195,0.08,1.723,0.24
		c0.525,0.16,0.98,0.4,1.363,0.719c0.383,0.316,0.68,0.713,0.893,1.189c0.211,0.475,0.317,1.029,0.317,1.666v4.922
		c0,0.998,0.14,1.793,0.421,2.389v0.174H126.745z M124.007,172.4c0.287,0,0.556-0.037,0.805-0.111
		c0.25-0.076,0.476-0.176,0.677-0.299c0.202-0.123,0.378-0.264,0.528-0.424c0.15-0.162,0.27-0.324,0.359-0.488v-2.092h-1.344
		c-0.923,0-1.617,0.16-2.082,0.482c-0.465,0.32-0.697,0.775-0.697,1.363c0,0.227,0.038,0.434,0.113,0.625s0.188,0.357,0.338,0.498
		s0.334,0.25,0.549,0.328C123.469,172.361,123.72,172.4,124.007,172.4z"/>
	<path fill="#E6E6E5" d="M136.624,171.182c0-0.178-0.028-0.344-0.087-0.498c-0.058-0.154-0.173-0.297-0.343-0.43
		c-0.172-0.135-0.412-0.26-0.724-0.375c-0.311-0.117-0.716-0.227-1.215-0.328c-0.595-0.123-1.137-0.277-1.625-0.461
		c-0.489-0.186-0.907-0.408-1.257-0.672c-0.348-0.264-0.62-0.572-0.814-0.928c-0.195-0.355-0.293-0.766-0.293-1.23
		c0-0.451,0.1-0.881,0.298-1.287s0.483-0.764,0.856-1.072c0.372-0.307,0.823-0.551,1.354-0.732c0.529-0.182,1.123-0.271,1.779-0.271
		c0.689,0,1.311,0.09,1.86,0.271c0.551,0.182,1.017,0.43,1.399,0.748s0.676,0.691,0.877,1.123c0.202,0.43,0.303,0.895,0.303,1.395
		h-2.492c0-0.213-0.041-0.418-0.123-0.621c-0.082-0.201-0.205-0.381-0.369-0.537c-0.164-0.158-0.367-0.283-0.609-0.375
		c-0.243-0.092-0.525-0.139-0.846-0.139c-0.315,0-0.589,0.039-0.82,0.119c-0.233,0.078-0.426,0.18-0.58,0.307
		c-0.153,0.127-0.269,0.273-0.344,0.441s-0.112,0.344-0.112,0.527c0,0.186,0.034,0.35,0.103,0.492
		c0.068,0.145,0.189,0.273,0.364,0.391c0.174,0.115,0.408,0.223,0.702,0.322s0.663,0.197,1.107,0.293
		c0.643,0.137,1.219,0.297,1.728,0.48c0.51,0.186,0.94,0.41,1.292,0.678c0.353,0.266,0.621,0.58,0.805,0.943
		c0.186,0.361,0.277,0.793,0.277,1.291c0,0.492-0.106,0.943-0.318,1.354s-0.514,0.766-0.907,1.063
		c-0.393,0.297-0.866,0.527-1.42,0.691s-1.169,0.246-1.846,0.246c-0.759,0-1.431-0.107-2.015-0.322
		c-0.585-0.215-1.075-0.498-1.472-0.846c-0.396-0.35-0.695-0.744-0.897-1.186c-0.201-0.439-0.303-0.891-0.303-1.348h2.42
		c0.021,0.342,0.1,0.629,0.236,0.861s0.311,0.42,0.523,0.564c0.211,0.143,0.451,0.248,0.717,0.313
		c0.268,0.064,0.54,0.098,0.82,0.098c0.656,0,1.155-0.125,1.498-0.375C136.453,171.91,136.624,171.584,136.624,171.182z"/>
	<path fill="#E6E6E5" d="M139.706,168.545c0-0.807,0.118-1.553,0.354-2.24c0.235-0.686,0.574-1.283,1.015-1.789
		c0.441-0.506,0.979-0.902,1.615-1.189s1.356-0.43,2.164-0.43c0.813,0,1.541,0.143,2.184,0.43s1.185,0.684,1.625,1.189
		c0.441,0.506,0.777,1.104,1.01,1.789c0.232,0.688,0.35,1.434,0.35,2.24v0.217c0,0.807-0.117,1.555-0.35,2.244
		c-0.232,0.691-0.568,1.287-1.01,1.791c-0.44,0.502-0.98,0.895-1.62,1.178c-0.639,0.283-1.362,0.426-2.169,0.426
		c-0.813,0-1.539-0.143-2.179-0.426c-0.639-0.283-1.179-0.676-1.62-1.178c-0.44-0.504-0.779-1.1-1.015-1.791
		c-0.236-0.689-0.354-1.438-0.354-2.244V168.545z M142.198,168.762c0,0.498,0.051,0.971,0.154,1.414
		c0.102,0.445,0.263,0.832,0.481,1.164s0.497,0.594,0.836,0.785c0.338,0.191,0.739,0.287,1.204,0.287
		c0.458,0,0.856-0.096,1.195-0.287c0.338-0.191,0.615-0.453,0.83-0.785c0.216-0.332,0.376-0.719,0.482-1.164
		c0.105-0.443,0.158-0.916,0.158-1.414v-0.217c0-0.492-0.053-0.957-0.158-1.398c-0.106-0.441-0.269-0.828-0.487-1.158
		c-0.219-0.332-0.497-0.598-0.836-0.795c-0.338-0.199-0.74-0.299-1.204-0.299c-0.466,0-0.863,0.1-1.195,0.299
		c-0.331,0.197-0.606,0.463-0.825,0.795c-0.219,0.33-0.38,0.717-0.481,1.158c-0.104,0.441-0.154,0.906-0.154,1.398V168.762z"/>
	<path fill="#E6E6E5" d="M153.37,163.102l0.072,1.281c0.389-0.473,0.857-0.838,1.404-1.098s1.155-0.389,1.825-0.389
		c0.533,0,1.017,0.072,1.451,0.221c0.434,0.146,0.805,0.383,1.112,0.711s0.545,0.756,0.713,1.283
		c0.167,0.525,0.251,1.164,0.251,1.916v7.168h-2.491v-7.188c0-0.383-0.043-0.705-0.129-0.969c-0.085-0.264-0.21-0.477-0.374-0.641
		s-0.367-0.283-0.61-0.354c-0.242-0.072-0.521-0.109-0.836-0.109c-0.512,0-0.958,0.123-1.338,0.369
		c-0.379,0.246-0.682,0.578-0.907,0.996v7.895h-2.491v-11.094H153.37z"/>
</g>
</svg>
